<?xml version="1.0" encoding="UTF-8"?>
<svg xmlns="http://www.w3.org/2000/svg" viewBox="0 0 1200 630" role="img" aria-label="RentGo - Alquiler de coches online">
  <defs>
    <linearGradient id="bg" x1="0" y1="0" x2="1" y2="1">
      <stop offset="0%"  stop-color="#115e59"/>
      <stop offset="100%" stop-color="#0d9488"/>
    </linearGradient>
  </defs>
  <rect width="1200" height="630" fill="url(#bg)"/>
  <!-- Logo: cuadrado redondeado teal + icono frontal de coche (mismo estilo que navbar/sidebar) -->
  <g transform="translate(700,180)">
    <rect width="320" height="320" rx="56" fill="#0f766e" stroke="#ffffff" stroke-opacity=".15" stroke-width="3"/>
    <g transform="translate(40,40) scale(15)" fill="#ffffff">
      <path d="M2.52 3.515A2.5 2.5 0 0 1 4.82 2h6.36a2.5 2.5 0 0 1 2.3 1.515l.792 1.848c.075.175.21.319.38.404.5.25.855.715.965 1.262l.335 1.679c.033.161.049.325.049.49v.413c0 .814-.39 1.543-1 1.997V13.5a.5.5 0 0 1-.5.5h-2a.5.5 0 0 1-.5-.5v-1.338c-1.292.048-2.745.088-4 .088s-2.708-.04-4-.088V13.5a.5.5 0 0 1-.5.5h-2a.5.5 0 0 1-.5-.5v-1.892c-.61-.454-1-1.183-1-1.997v-.413a2.5 2.5 0 0 1 .049-.49l.335-1.68c.11-.546.465-1.012.964-1.261a.807.807 0 0 0 .381-.404l.792-1.848ZM3 10a1 1 0 1 0 0-2 1 1 0 0 0 0 2Zm10 0a1 1 0 1 0 0-2 1 1 0 0 0 0 2ZM6 8a1 1 0 0 0 0 2h4a1 1 0 1 0 0-2H6ZM2.906 5.189a.51.51 0 0 0 .497.731c.91-.073 3.35-.17 4.597-.17 1.247 0 3.688.097 4.597.17a.51.51 0 0 0 .497-.731l-.956-1.913A.5.5 0 0 0 11.691 3H4.309a.5.5 0 0 0-.447.276L2.906 5.19Z"/>
    </g>
  </g>
  <!-- Marca + claim -->
  <text x="80" y="270" font-family="Inter, Arial, sans-serif" font-size="120" font-weight="800" fill="#ffffff">RentGo</text>
  <text x="84" y="340" font-family="Inter, Arial, sans-serif" font-size="42" font-weight="500" fill="#ccfbf1">Alquiler de coches online</text>
  <text x="84" y="400" font-family="Inter, Arial, sans-serif" font-size="32" font-weight="400" fill="#a7f3d0">Reserva facil, sin sorpresas, en mas de 15 sucursales</text>
</svg>

